<mxfile host="app.diagrams.net" agent="Mozilla/5.0 (Windows NT 10.0; Win64; x64) AppleWebKit/537.36 (KHTML, like Gecko) Chrome/137.0.0.0 Safari/537.36" version="26.0.16">
  <diagram name="Страница — 1" id="o9VU4HioglSQesZyk7LR">
    <mxGraphModel dx="830" dy="456" grid="1" gridSize="10" guides="1" tooltips="1" connect="1" arrows="1" fold="1" page="1" pageScale="1" pageWidth="827" pageHeight="1169" math="0" shadow="0">
      <root>
        <mxCell id="0" />
        <mxCell id="1" parent="0" />
        <mxCell id="4fkkhfJz39ZWM9gnuvRM-32" value="" style="rounded=0;whiteSpace=wrap;html=1;dashed=1;dashPattern=12 12;" vertex="1" parent="1">
          <mxGeometry x="50" y="170" width="400" height="260" as="geometry" />
        </mxCell>
        <mxCell id="4fkkhfJz39ZWM9gnuvRM-31" value="service pod" style="text;whiteSpace=wrap;" vertex="1" parent="1">
          <mxGeometry x="374" y="400" width="80" height="40" as="geometry" />
        </mxCell>
        <mxCell id="4fkkhfJz39ZWM9gnuvRM-35" style="edgeStyle=orthogonalEdgeStyle;rounded=0;orthogonalLoop=1;jettySize=auto;html=1;entryX=0;entryY=0.5;entryDx=0;entryDy=0;" edge="1" parent="1" source="4fkkhfJz39ZWM9gnuvRM-33" target="4fkkhfJz39ZWM9gnuvRM-34">
          <mxGeometry relative="1" as="geometry" />
        </mxCell>
        <mxCell id="4fkkhfJz39ZWM9gnuvRM-33" value="service container" style="rounded=0;whiteSpace=wrap;html=1;" vertex="1" parent="1">
          <mxGeometry x="80" y="240" width="120" height="80" as="geometry" />
        </mxCell>
        <mxCell id="4fkkhfJz39ZWM9gnuvRM-39" style="edgeStyle=orthogonalEdgeStyle;rounded=0;orthogonalLoop=1;jettySize=auto;html=1;entryX=0;entryY=0.5;entryDx=0;entryDy=0;" edge="1" parent="1" source="4fkkhfJz39ZWM9gnuvRM-34" target="4fkkhfJz39ZWM9gnuvRM-38">
          <mxGeometry relative="1" as="geometry" />
        </mxCell>
        <mxCell id="4fkkhfJz39ZWM9gnuvRM-34" value="collector container" style="rounded=0;whiteSpace=wrap;html=1;" vertex="1" parent="1">
          <mxGeometry x="300" y="240" width="120" height="80" as="geometry" />
        </mxCell>
        <mxCell id="4fkkhfJz39ZWM9gnuvRM-36" value="localhost:4317" style="text;whiteSpace=wrap;html=1;" vertex="1" parent="1">
          <mxGeometry x="205" y="250" width="90" height="30" as="geometry" />
        </mxCell>
        <mxCell id="4fkkhfJz39ZWM9gnuvRM-37" value="otlp grcp" style="text;whiteSpace=wrap;html=1;" vertex="1" parent="1">
          <mxGeometry x="220" y="280" width="55" height="30" as="geometry" />
        </mxCell>
        <mxCell id="4fkkhfJz39ZWM9gnuvRM-38" value="APM servcer / Sampling collector" style="rounded=0;whiteSpace=wrap;html=1;" vertex="1" parent="1">
          <mxGeometry x="590" y="230" width="190" height="100" as="geometry" />
        </mxCell>
        <mxCell id="4fkkhfJz39ZWM9gnuvRM-40" value="batched + compressed" style="text;whiteSpace=wrap;html=1;" vertex="1" parent="1">
          <mxGeometry x="454" y="250" width="130" height="30" as="geometry" />
        </mxCell>
      </root>
    </mxGraphModel>
  </diagram>
</mxfile>
